<svg id="visual" viewBox="0 0 900 600" width="900" height="600" xmlns="http://www.w3.org/2000/svg" xmlns:xlink="http://www.w3.org/1999/xlink" version="1.1"><rect x="0" y="0" width="900" height="600" fill="#FFF"></rect><path d="M0 390L21.5 396.8C43 403.7 86 417.3 128.8 418.2C171.7 419 214.3 407 257.2 401.2C300 395.3 343 395.7 385.8 380.7C428.7 365.7 471.3 335.3 514.2 341.7C557 348 600 391 642.8 404.2C685.7 417.3 728.3 400.7 771.2 390.7C814 380.7 857 377.3 878.5 375.7L900 374L900 601L878.5 601C857 601 814 601 771.2 601C728.3 601 685.7 601 642.8 601C600 601 557 601 514.2 601C471.3 601 428.7 601 385.8 601C343 601 300 601 257.2 601C214.3 601 171.7 601 128.8 601C86 601 43 601 21.5 601L0 601Z" fill="#39008d" stroke-linecap="round" stroke-linejoin="miter"></path></svg>